<?xml version="1.0" encoding="UTF-8" standalone="no"?>
<!DOCTYPE svg PUBLIC "-//W3C//DTD SVG 1.1//EN" "http://www.w3.org/Graphics/SVG/1.1/DTD/svg11.dtd">
<svg width="100%" height="100%" viewBox="0 0 24 24" version="1.1" xmlns="http://www.w3.org/2000/svg" xmlns:xlink="http://www.w3.org/1999/xlink" xml:space="preserve" xmlns:serif="http://www.serif.com/" style="fill-rule:evenodd;clip-rule:evenodd;stroke-linejoin:round;stroke-miterlimit:2;">
    <path d="M24,0L24,24L0,24L0,0L24,0ZM10.537,15.77C10.211,15.619 9.902,15.427 9.611,15.195C9.214,14.869 8.782,14.44 8.315,13.909C7.847,13.378 7.394,12.804 6.955,12.188C6.516,11.572 6.126,10.995 5.786,10.456C5.191,10.556 4.639,10.619 4.129,10.648C3.845,11.186 3.605,11.703 3.406,12.199C3.208,12.695 3.059,13.169 2.96,13.622C2.946,13.707 2.935,13.778 2.928,13.835C2.921,13.892 2.918,13.934 2.918,13.962C2.918,14.217 2.967,14.44 3.066,14.632C3.165,14.823 3.279,14.926 3.406,14.94C3.52,14.954 3.612,14.982 3.682,15.025C3.753,15.067 3.803,15.117 3.831,15.173L3.831,15.216C3.831,15.315 3.711,15.365 3.47,15.365C2.663,15.365 2.259,14.996 2.259,14.26C2.259,14.203 2.266,14.122 2.28,14.015C2.294,13.909 2.316,13.778 2.344,13.622C2.528,12.716 2.882,11.717 3.406,10.626C3.165,10.556 2.907,10.449 2.631,10.308C2.354,10.166 2.124,9.957 1.94,9.681C1.756,9.405 1.664,9.033 1.664,8.565C1.664,8.07 1.784,7.655 2.025,7.322C2.266,6.989 2.592,6.823 3.003,6.823C3.328,6.823 3.69,6.943 4.086,7.184C4.115,7.198 4.153,7.227 4.203,7.269C4.253,7.312 4.327,7.361 4.426,7.418C4.582,7.517 4.752,7.68 4.936,7.907C5.29,7.383 5.655,6.883 6.03,6.409C6.406,5.934 6.792,5.477 7.188,5.038C7.245,4.982 7.273,4.904 7.273,4.804L7.273,4.719C7.273,4.62 7.295,4.55 7.337,4.507C7.45,4.394 7.684,4.266 8.038,4.125C8.109,4.082 8.152,4.04 8.166,3.997C8.237,3.912 8.336,3.87 8.463,3.87C8.662,3.87 8.846,3.937 9.016,4.071C9.186,4.206 9.214,4.33 9.101,4.443L8.718,4.847C8.392,5.173 8.017,5.569 7.592,6.037C7.224,6.433 6.863,6.841 6.508,7.259C6.154,7.676 5.814,8.112 5.489,8.565L5.871,9.139C6.013,9.352 6.154,9.578 6.296,9.819C7.16,9.663 7.964,9.461 8.708,9.213C9.451,8.966 10.191,8.636 10.928,8.225C11.849,7.715 12.55,7.163 13.032,6.568C13.513,5.973 13.754,5.399 13.754,4.847C13.754,4.181 13.41,3.632 12.723,3.2C12.036,2.768 11.07,2.552 9.823,2.552C9.426,2.552 9.002,2.581 8.548,2.637C8.095,2.694 7.606,2.779 7.082,2.892C6.048,3.119 5.014,3.501 3.98,4.04C2.946,4.578 2.089,5.258 1.409,6.079C1.253,6.264 1.119,6.299 1.005,6.186C0.963,6.129 0.956,6.037 0.984,5.909C0.998,5.81 1.076,5.654 1.218,5.442C1.685,4.776 2.45,4.181 3.512,3.657C4.221,3.289 4.964,2.977 5.744,2.722C6.523,2.467 7.273,2.269 7.996,2.127C8.718,1.986 9.342,1.915 9.866,1.915C10.886,1.915 11.792,2.035 12.585,2.276C14.129,2.772 14.901,3.565 14.901,4.656C14.901,5.251 14.639,5.863 14.115,6.494C13.591,7.124 12.812,7.73 11.778,8.31C11.14,8.665 10.354,9.022 9.419,9.383C8.485,9.745 7.543,10.046 6.593,10.286C6.721,10.513 6.912,10.796 7.167,11.136C7.422,11.476 7.702,11.827 8.006,12.188C8.311,12.549 8.612,12.889 8.909,13.208C9.207,13.527 9.462,13.785 9.674,13.984C9.827,14.125 9.993,14.275 10.147,14.398C10.322,14.538 10.822,14.856 11.2,15.056C11.427,14.787 11.632,14.518 11.817,14.249C12.383,13.512 12.921,12.829 13.431,12.199C13.941,11.568 14.437,10.984 14.919,10.446C15.542,9.737 16.222,9.065 16.958,8.427C17.695,7.79 18.446,7.273 19.211,6.876C19.976,6.479 20.712,6.281 21.421,6.281C21.931,6.281 22.338,6.38 22.642,6.579C22.947,6.777 23.099,7.067 23.099,7.45C23.099,7.761 22.979,8.137 22.738,8.576C22.483,9.015 22.139,9.497 21.707,10.021C21.275,10.545 20.748,11.111 20.124,11.721C19.303,12.542 18.428,13.296 17.5,13.983C16.745,14.543 15.998,15.013 15.262,15.394C15.061,15.524 14.853,15.638 14.636,15.737C14.268,15.903 13.893,16.024 13.51,16.099C13.082,16.212 12.673,16.268 12.284,16.268C11.831,16.268 11.455,16.197 11.158,16.055C10.804,16.508 10.471,16.965 10.159,17.426C9.848,17.886 9.557,18.343 9.288,18.796C9.274,18.895 9.175,19.094 8.991,19.391C9.67,19.023 10.492,18.718 11.455,18.477C12.419,18.237 13.428,18.052 14.483,17.925C15.538,17.797 16.526,17.741 17.447,17.755C18.028,17.755 18.471,17.893 18.775,18.169C19.08,18.445 19.232,18.768 19.232,19.136C19.232,19.179 19.228,19.228 19.221,19.285C19.214,19.341 19.204,19.405 19.19,19.476C19.175,19.703 19.122,19.905 19.03,20.082C18.938,20.259 18.835,20.347 18.722,20.347C18.566,20.347 18.467,20.135 18.425,19.71C18.325,19.341 18.191,19.065 18.021,18.881C17.851,18.697 17.525,18.605 17.043,18.605C13.672,18.633 10.832,19.271 8.523,20.517C8.41,20.744 8.296,20.942 8.183,21.112C8.07,21.282 7.964,21.424 7.864,21.537C7.595,21.849 7.319,22.005 7.036,22.005C6.937,22.005 6.844,21.983 6.76,21.941C6.561,21.813 6.462,21.636 6.462,21.41C6.462,21.31 6.483,21.218 6.526,21.133C6.611,20.963 6.802,20.751 7.099,20.496C7.397,20.241 7.716,20.014 8.056,19.816C8.197,19.632 8.311,19.462 8.396,19.306C8.481,19.15 8.544,19.016 8.587,18.902C8.913,18.307 9.246,17.755 9.585,17.245C9.925,16.735 10.265,16.26 10.605,15.821C10.582,15.805 10.559,15.788 10.537,15.77ZM16.41,14.159C17.181,13.68 17.92,13.133 18.626,12.517C19.398,11.844 20.093,11.147 20.709,10.424C21.325,9.702 21.81,9.029 22.164,8.406C22.391,8.009 22.504,7.691 22.504,7.45C22.504,7.138 22.299,6.982 21.888,6.982C21.746,6.982 21.576,7.003 21.378,7.046C20.471,7.23 19.395,7.818 18.148,8.81C17.327,9.461 16.523,10.166 15.737,10.924C14.951,11.682 14.214,12.439 13.527,13.197C12.841,13.954 12.236,14.658 11.712,15.309C11.72,15.312 11.728,15.315 11.736,15.318C12.053,15.399 12.363,15.439 12.666,15.439C13.647,15.439 14.709,15.122 15.854,14.488C16.137,14.321 16.22,14.279 16.41,14.159ZM3.746,9.925C3.817,9.784 3.92,9.596 4.054,9.362C4.189,9.128 4.348,8.856 4.532,8.544C4.249,8.176 3.941,7.903 3.608,7.726C3.275,7.549 2.946,7.46 2.62,7.46C2.337,7.46 2.195,7.623 2.195,7.949C2.195,8.459 2.323,8.888 2.578,9.235C2.833,9.582 3.222,9.812 3.746,9.925ZM4.532,9.989C4.632,9.989 4.759,9.985 4.915,9.978C5.071,9.971 5.262,9.961 5.489,9.946L5.021,9.224C4.922,9.366 4.833,9.5 4.755,9.628L4.532,9.989Z"/>
</svg>
