<?xml version="1.0" encoding="UTF-8" standalone="no"?>
<!DOCTYPE svg PUBLIC "-//W3C//DTD SVG 1.1//EN" "http://www.w3.org/Graphics/SVG/1.1/DTD/svg11.dtd">
<svg width="100%" height="100%" viewBox="0 0 24 24" version="1.1" xmlns="http://www.w3.org/2000/svg" xmlns:xlink="http://www.w3.org/1999/xlink" xml:space="preserve" xmlns:serif="http://www.serif.com/" style="fill-rule:evenodd;clip-rule:evenodd;stroke-linejoin:round;stroke-miterlimit:2;">
    <g transform="matrix(1.28595,0,0,1.28595,-3.8266,-4.77534)">
        <path d="M11.14,16.113C10.868,15.987 10.61,15.827 10.366,15.633C10.036,15.362 9.675,15.004 9.285,14.561C8.895,14.118 8.517,13.639 8.151,13.125C7.784,12.611 7.459,12.129 7.176,11.68C6.679,11.763 6.218,11.816 5.793,11.84C5.557,12.289 5.356,12.72 5.19,13.134C5.025,13.547 4.901,13.943 4.818,14.322C4.806,14.392 4.797,14.452 4.791,14.499C4.785,14.546 4.782,14.582 4.782,14.605C4.782,14.818 4.824,15.004 4.907,15.164C4.989,15.323 5.084,15.409 5.19,15.421C5.285,15.432 5.362,15.456 5.421,15.492C5.48,15.527 5.521,15.568 5.545,15.616L5.545,15.651C5.545,15.734 5.444,15.775 5.243,15.775C4.57,15.775 4.233,15.468 4.233,14.853C4.233,14.806 4.239,14.738 4.251,14.65C4.262,14.561 4.28,14.452 4.304,14.322C4.457,13.565 4.753,12.732 5.19,11.822C4.989,11.763 4.774,11.674 4.543,11.556C4.313,11.438 4.121,11.264 3.967,11.033C3.813,10.803 3.737,10.493 3.737,10.103C3.737,9.689 3.837,9.343 4.038,9.066C4.239,8.788 4.511,8.649 4.853,8.649C5.125,8.649 5.427,8.749 5.757,8.95C5.781,8.962 5.814,8.986 5.855,9.021C5.896,9.057 5.958,9.098 6.041,9.145C6.171,9.228 6.313,9.364 6.467,9.553C6.762,9.116 7.066,8.699 7.379,8.303C7.693,7.907 8.015,7.526 8.346,7.16C8.393,7.113 8.416,7.048 8.416,6.965L8.416,6.894C8.416,6.811 8.434,6.752 8.47,6.717C8.564,6.622 8.759,6.516 9.055,6.398C9.114,6.362 9.149,6.327 9.161,6.291C9.22,6.22 9.303,6.185 9.409,6.185C9.575,6.185 9.728,6.241 9.87,6.353C10.012,6.466 10.036,6.569 9.941,6.664L9.622,7C9.35,7.272 9.037,7.603 8.682,7.993C8.375,8.324 8.074,8.664 7.778,9.012C7.483,9.361 7.199,9.724 6.927,10.103L7.247,10.581C7.365,10.758 7.483,10.948 7.601,11.148C8.322,11.018 8.993,10.85 9.613,10.643C10.233,10.436 10.851,10.162 11.466,9.819C12.234,9.393 12.819,8.933 13.22,8.436C13.622,7.94 13.823,7.461 13.823,7C13.823,6.445 13.537,5.987 12.963,5.626C12.39,5.266 11.584,5.086 10.544,5.086C10.213,5.086 9.858,5.109 9.48,5.157C9.102,5.204 8.694,5.275 8.257,5.369C7.394,5.559 6.532,5.878 5.669,6.327C4.806,6.776 4.091,7.343 3.524,8.028C3.394,8.182 3.282,8.212 3.187,8.117C3.152,8.07 3.146,7.993 3.169,7.887C3.181,7.804 3.246,7.674 3.364,7.497C3.754,6.941 4.392,6.445 5.279,6.008C5.87,5.7 6.49,5.44 7.14,5.228C7.79,5.015 8.416,4.849 9.019,4.731C9.622,4.613 10.142,4.554 10.579,4.554C11.43,4.554 12.186,4.654 12.848,4.855C14.136,5.269 14.78,5.931 14.78,6.841C14.78,7.337 14.562,7.848 14.125,8.374C13.687,8.9 13.037,9.405 12.175,9.89C11.643,10.185 10.987,10.484 10.207,10.785C9.427,11.086 8.641,11.338 7.849,11.538C7.956,11.728 8.115,11.964 8.328,12.248C8.541,12.531 8.774,12.824 9.028,13.125C9.282,13.426 9.533,13.71 9.781,13.976C10.03,14.242 10.242,14.457 10.42,14.623C10.547,14.741 10.675,14.852 10.804,14.954C10.84,14.761 10.906,14.564 11.001,14.366C11.096,14.165 11.179,14.041 11.25,13.993C11.332,13.946 11.385,13.934 11.409,13.958C11.433,13.958 11.445,14.005 11.445,14.1C11.445,14.183 11.415,14.295 11.356,14.437C11.309,14.519 11.285,14.632 11.285,14.773C11.285,15.069 11.421,15.317 11.693,15.518C11.882,15.293 12.053,15.069 12.207,14.844C12.679,14.23 13.129,13.66 13.554,13.134C13.979,12.608 14.393,12.12 14.795,11.671C15.315,11.08 15.882,10.519 16.497,9.987C17.111,9.455 17.738,9.024 18.376,8.693C19.014,8.362 19.628,8.197 20.219,8.197C20.645,8.197 20.985,8.279 21.239,8.445C21.493,8.61 21.62,8.853 21.62,9.172C21.62,9.432 21.519,9.745 21.318,10.111C21.106,10.478 20.819,10.879 20.459,11.317C20.098,11.754 19.658,12.227 19.138,12.735C18.453,13.42 17.723,14.05 16.949,14.623C16.318,15.09 15.696,15.482 15.081,15.8C14.914,15.908 14.74,16.003 14.559,16.085C14.252,16.224 13.939,16.325 13.62,16.388C13.262,16.482 12.921,16.528 12.597,16.528C12.219,16.528 11.905,16.469 11.657,16.351C11.362,16.729 11.084,17.11 10.824,17.495C10.564,17.879 10.322,18.26 10.097,18.638C10.085,18.721 10.003,18.886 9.849,19.134C10.416,18.827 11.102,18.573 11.905,18.372C12.709,18.171 13.551,18.017 14.432,17.911C15.312,17.805 16.136,17.758 16.904,17.769C17.389,17.769 17.758,17.885 18.012,18.115C18.266,18.345 18.393,18.614 18.393,18.922C18.393,18.957 18.391,18.998 18.385,19.046C18.379,19.093 18.37,19.146 18.358,19.205C18.346,19.394 18.302,19.563 18.225,19.71C18.148,19.858 18.063,19.932 17.968,19.932C17.838,19.932 17.755,19.755 17.72,19.4C17.637,19.093 17.525,18.862 17.383,18.709C17.241,18.555 16.969,18.478 16.568,18.478C13.755,18.502 11.385,19.034 9.459,20.074C9.365,20.263 9.27,20.428 9.175,20.57C9.081,20.712 8.992,20.83 8.91,20.925C8.685,21.185 8.455,21.315 8.218,21.315C8.135,21.315 8.059,21.297 7.988,21.262C7.822,21.155 7.74,21.007 7.74,20.818C7.74,20.736 7.757,20.659 7.793,20.588C7.864,20.446 8.023,20.269 8.271,20.056C8.52,19.843 8.785,19.654 9.069,19.489C9.187,19.335 9.282,19.193 9.353,19.063C9.424,18.933 9.477,18.821 9.512,18.727C9.784,18.23 10.062,17.769 10.345,17.344C10.629,16.918 10.913,16.523 11.196,16.156C11.177,16.142 11.158,16.128 11.14,16.113ZM16.039,14.77C16.683,14.37 17.299,13.913 17.888,13.4C18.532,12.838 19.111,12.256 19.625,11.654C20.14,11.051 20.544,10.489 20.84,9.969C21.029,9.639 21.123,9.373 21.123,9.172C21.123,8.912 20.952,8.782 20.609,8.782C20.491,8.782 20.349,8.799 20.184,8.835C19.428,8.989 18.529,9.479 17.489,10.306C16.804,10.85 16.133,11.438 15.477,12.07C14.821,12.702 14.207,13.335 13.634,13.967C13.061,14.598 12.557,15.186 12.12,15.729C12.126,15.731 12.133,15.734 12.14,15.736C12.404,15.803 12.663,15.837 12.916,15.837C13.734,15.837 14.62,15.573 15.575,15.043C15.667,14.951 15.757,14.853 15.844,14.747C15.868,14.723 15.897,14.712 15.933,14.712C15.975,14.712 16.011,14.731 16.039,14.77ZM5.474,11.237C5.533,11.119 5.619,10.962 5.731,10.767C5.843,10.572 5.976,10.345 6.13,10.085C5.893,9.778 5.636,9.55 5.359,9.402C5.081,9.255 4.806,9.181 4.534,9.181C4.298,9.181 4.18,9.317 4.18,9.588C4.18,10.014 4.286,10.371 4.499,10.661C4.712,10.95 5.037,11.143 5.474,11.237ZM6.13,11.29C6.212,11.29 6.319,11.287 6.449,11.281C6.579,11.275 6.738,11.267 6.927,11.255L6.537,10.652C6.455,10.77 6.381,10.883 6.316,10.989L6.13,11.29Z" style="fill-rule:nonzero;"/>
    </g>
</svg>
