<?xml version="1.0" encoding="UTF-8"?>
<svg xmlns="http://www.w3.org/2000/svg" id="Layer_1" data-name="Layer 1" viewBox="0 0 24 24">
  <path d="M12,1C6.878,1,1,2.25,1,12c0,7.71,3.29,11,11,11,5.122,0,11-1.25,11-11,0-7.71-3.29-11-11-11Zm0,21c-7.103,0-10-2.897-10-10S4.897,2,12,2s10,2.897,10,10-2.897,10-10,10Z"/>
  <g>
    <path d="M12,1C6.878,1,1,2.25,1,12c0,7.71,3.29,11,11,11,5.122,0,11-1.25,11-11,0-7.71-3.29-11-11-11Zm0,21c-7.103,0-10-2.897-10-10S4.897,2,12,2s10,2.897,10,10-2.897,10-10,10Z"/>
    <path d="M15.517,11.466c-.064-.035-1.452-.794-3.017-.933v-3.783c0-.276-.224-.5-.5-.5s-.5,.224-.5,.5v3.788c-1.575,.159-2.964,.968-3.028,1.006-.188,.111-.283,.332-.233,.545,.8,3.415,3.339,5.47,3.45,5.552,.344,.255,.634-.01,.648-.022,.436-.371,2.646-2.386,3.423-5.598,.053-.219-.047-.446-.244-.555Zm-3.52,5.111c-.636-.605-2.063-2.152-2.688-4.344,.528-.259,1.614-.717,2.697-.722,1.071,.028,2.144,.416,2.68,.66-.646,2.229-2.023,3.763-2.689,4.405Z"/>
  </g>
</svg>
