<svg id="Layer_1" viewBox="0 0 24 24" xmlns="http://www.w3.org/2000/svg" data-name="Layer 1"><path d="m20.088 2.783c-.08-.359-.352-.646-.706-.746-.15-.042-3.73-1.037-7.382-1.037s-7.231.995-7.382 1.037c-.354.1-.626.387-.706.746-.037.168-.912 4.165-.912 9.217s.875 9.049.912 9.217c.08.359.352.646.706.746.15.042 3.73 1.037 7.382 1.037s7.231-.995 7.382-1.037c.354-.1.626-.387.706-.746.037-.168.912-4.165.912-9.217s-.875-9.049-.912-9.217zm-9.088 13.217h-3c-.553 0-1-.447-1-1s.447-1 1-1h3c.553 0 1 .447 1 1s-.447 1-1 1zm5-4h-8c-.553 0-1-.447-1-1s.447-1 1-1h8c.553 0 1 .447 1 1s-.447 1-1 1zm0-4h-8c-.553 0-1-.447-1-1s.447-1 1-1h8c.553 0 1 .447 1 1s-.447 1-1 1z"/></svg>