<svg id="Layer_1" viewBox="0 0 24 24" xmlns="http://www.w3.org/2000/svg" data-name="Layer 1" fill="currentColor"><path d="m13.249 8.897c-2.553-1.531-4.097-1.873-4.161-1.886-.254-.055-.502.092-.58.335-.021.064-.508 1.61-.508 4.653s.486 4.589.508 4.653c.078.245.335.39.58.335.064-.014 1.608-.355 4.161-1.886 2.447-1.467 3.514-2.644 3.627-2.772.165-.189.165-.471 0-.66-.113-.129-1.18-1.305-3.627-2.772zm-.514 5.348c-1.603.961-2.783 1.426-3.393 1.629-.136-.644-.343-1.941-.343-3.874s.207-3.23.343-3.874c.609.203 1.79.668 3.393 1.629 1.624.974 2.6 1.807 3.062 2.245-.463.438-1.438 1.271-3.062 2.245zm-.735-13.245c-7.813 0-11 3.187-11 11s3.187 11 11 11 11-3.187 11-11-3.187-11-11-11zm0 21c-7.196 0-10-2.804-10-10s2.804-10 10-10 10 2.804 10 10-2.804 10-10 10z"/></svg>